<svg id="Layer_1" data-name="Layer 1" xmlns="http://www.w3.org/2000/svg" viewBox="0 0 500 500"><defs><style>.cls-1{fill:#212222;}.cls-2{fill:none;stroke:#212222;stroke-miterlimit:10;stroke-width:32px;}</style></defs><title>beer</title><path class="cls-1" d="M76.86,152.37H348.71a0,0,0,0,1,0,0V370.93A105.07,105.07,0,0,1,243.64,476H181.93A105.07,105.07,0,0,1,76.86,370.93V152.37a0,0,0,0,1,0,0Z"/><rect class="cls-1" x="76.32" y="68.23" width="271.85" height="55.02"/><path class="cls-2" d="M339.15,195.28c52.9-7.66,96.75,33.13,98.5,76.93,1.84,46-42.5,100.35-98.5,93"/><circle class="cls-1" cx="100.59" cy="95.74" r="38.84"/><circle class="cls-1" cx="220.33" cy="95.74" r="38.84"/><circle class="cls-1" cx="324.97" cy="95.74" r="38.84"/><ellipse class="cls-1" cx="161" cy="73.62" rx="55.56" ry="60.95"/><ellipse class="cls-1" cx="271.04" cy="81.17" rx="44.25" ry="48.54"/></svg>