<svg id="Layer_1" data-name="Layer 1" xmlns="http://www.w3.org/2000/svg" viewBox="0 0 500 500"><defs><style>.cls-1{fill:#fff;}</style></defs><title>beer2</title><path class="cls-1" d="M251,494C116.46,494,7,384.54,7,250S116.46,6,251,6,495,115.46,495,250,385.54,494,251,494Zm0-450.13C137.34,43.86,44.86,136.34,44.86,250S137.34,456.14,251,456.14,457.14,363.66,457.14,250,364.66,43.86,251,43.86Z"/><path class="cls-1" d="M274,410.91h-61a66.26,66.26,0,0,1-66.26-66.26V180.49H340.21V344.65A66.26,66.26,0,0,1,274,410.91Z"/><rect class="cls-1" x="146.65" y="128.64" width="193.56" height="39.17"/><path class="cls-1" d="M340.72,342a65.6,65.6,0,0,1-8.56-.56l2.48-18.77c14.12,1.87,28.25-2.91,39.8-13.45,12.52-11.43,20.23-28.3,19.64-43-.5-12.48-7.18-25.24-17.88-34.13a52.26,52.26,0,0,0-41.44-11.66L332,201.67A71,71,0,0,1,388.3,217.5c15,12.45,24,29.92,24.7,47.94.81,20.34-9.08,42.45-25.8,57.72C373.74,335.44,357.5,342,340.72,342Z"/><circle class="cls-1" cx="163.93" cy="148.23" r="27.65"/><circle class="cls-1" cx="249.19" cy="148.23" r="27.65"/><circle class="cls-1" cx="323.7" cy="148.23" r="27.65"/><ellipse class="cls-1" cx="206.95" cy="132.48" rx="39.56" ry="43.4"/><ellipse class="cls-1" cx="285.29" cy="137.86" rx="31.51" ry="34.56"/></svg>