<svg xmlns="http://www.w3.org/2000/svg" viewBox="0 0 500 500"><defs><style>.cls-1{fill:#fff;}</style></defs><title>heart</title><g id="Layer_1" data-name="Layer 1"><path class="cls-1" d="M251,494C116.46,494,7,384.54,7,250S116.46,6,251,6,495,115.46,495,250,385.54,494,251,494Zm0-450.13C137.34,43.86,44.86,136.34,44.86,250S137.34,456.14,251,456.14,457.14,363.66,457.14,250,364.66,43.86,251,43.86Z"/></g><g id="Layer_4" data-name="Layer 4"><path class="cls-1" d="M250,418.2l-3.8-2.34C215.06,396.55,156,349.5,122,302.86,46.46,199.33,97.91,147.78,131.5,132,187,105.92,237.5,167.63,250,188.22"/><path class="cls-1" d="M250,418.2l3.8-2.34C284.94,396.55,344,349.5,378,302.86,453.54,199.33,402.09,147.78,368.5,132,313,105.92,262.5,167.63,250,188.22"/></g></svg>